<svg xmlns="http://www.w3.org/2000/svg" width="1377.756" height="661.929" viewBox="0 0 1377.756 661.929"><defs><style>.a{fill:#fff;}.a,.d{stroke:#dfe1e5;}.a,.d,.e{stroke-miterlimit:10;}.b{fill:#f3f4f6;}.c{fill:rgba(11,37,64,0.1);}.d,.e{fill:none;}.d{stroke-width:0.5px;}.e{stroke:#f3f4f6;}</style></defs><g transform="translate(-387.559 -276)"><rect class="a" width="323.699" height="208.795" rx="10.11" transform="translate(388.059 319.012)"/><rect class="a" width="323.699" height="208.795" rx="10.11" transform="translate(739.078 319.012)"/><rect class="a" width="323.699" height="208.795" rx="10.11" transform="translate(1090.097 319.012)"/><rect class="a" width="323.699" height="208.795" rx="10.11" transform="translate(1441.116 319.012)"/><ellipse class="b" cx="21.201" cy="21.201" rx="21.201" ry="21.201" transform="translate(422.751 344.41)"/><ellipse class="b" cx="21.201" cy="21.201" rx="21.201" ry="21.201" transform="translate(773.771 344.41)"/><ellipse class="b" cx="21.201" cy="21.201" rx="21.201" ry="21.201" transform="translate(1124.79 344.41)"/><ellipse class="b" cx="21.201" cy="21.201" rx="21.201" ry="21.201" transform="translate(1475.809 344.41)"/><path class="b" d="M453.893,257a50.5,50.5,0,1,0,50.5,50.5A50.5,50.5,0,0,0,453.893,257Z" transform="translate(162.486 135.251)"/><path class="b" d="M453.893,257a50.5,50.5,0,1,0,50.5,50.5A50.5,50.5,0,0,0,453.893,257Z" transform="translate(513.505 135.251)"/><path class="b" d="M453.893,257a50.5,50.5,0,1,0,50.5,50.5A50.5,50.5,0,0,0,453.893,257Z" transform="translate(864.524 135.251)"/><path class="b" d="M453.893,257a50.5,50.5,0,1,0,50.5,50.5A50.5,50.5,0,0,0,453.893,257Z" transform="translate(1215.543 135.251)"/><path class="c" d="M453.893,257a50.5,50.5,0,0,0-35.71,86.211l35.71-35.71Z" transform="translate(162.486 135.251)"/><path class="c" d="M453.893,257a50.5,50.5,0,0,0-35.71,86.211l35.71-35.71Z" transform="translate(513.505 135.251)"/><path class="c" d="M453.893,257a50.5,50.5,0,0,0-35.71,86.211l35.71-35.71Z" transform="translate(864.524 135.251)"/><path class="c" d="M453.893,257a50.5,50.5,0,0,0-35.71,86.211l35.71-35.71Z" transform="translate(1215.543 135.251)"/><rect class="b" width="94" height="19" rx="9.5" transform="translate(481.196 356)"/><rect class="b" width="94" height="19" rx="9.5" transform="translate(832.196 356)"/><rect class="b" width="94" height="19" rx="9.5" transform="translate(1183.196 356)"/><rect class="b" width="94" height="19" rx="9.5" transform="translate(1534.196 356)"/><rect class="b" width="119" height="20" rx="10" transform="translate(388.196 276)"/><rect class="b" width="119" height="20" rx="10" transform="translate(388.196 569)"/><rect class="b" width="119" height="20" rx="10" transform="translate(1642.196 569)"/><rect class="b" width="123" height="19" rx="9.5" transform="translate(427.196 426)"/><rect class="b" width="123" height="19" rx="9.5" transform="translate(778.196 426)"/><rect class="b" width="123" height="19" rx="9.5" transform="translate(1129.196 426)"/><rect class="b" width="123" height="19" rx="9.5" transform="translate(1480.196 426)"/><rect class="b" width="123" height="19" rx="9.5" transform="translate(427.196 459)"/><rect class="b" width="123" height="19" rx="9.5" transform="translate(778.196 459)"/><rect class="b" width="123" height="19" rx="9.5" transform="translate(1129.196 459)"/><rect class="b" width="123" height="19" rx="9.5" transform="translate(1480.196 459)"/><rect class="a" width="1369.518" height="333.093" rx="10.11" transform="translate(390.3 604.337)"/><ellipse class="b" cx="21.261" cy="21.261" rx="21.261" ry="21.261" transform="translate(428.091 630.17)"/><line class="d" x1="1231.863" transform="translate(470.614 842.205)"/><line class="d" x1="1231.863" transform="translate(470.614 808.187)"/><line class="d" x1="1231.863" transform="translate(470.614 774.169)"/><line class="d" x1="1231.863" transform="translate(470.614 740.151)"/><line class="d" x1="1231.863" transform="translate(470.614 706.133)"/><rect class="b" width="24.487" height="64.343" transform="translate(491.135 811.231)"/><rect class="b" width="24.487" height="99.858" transform="translate(522.151 775.715)"/><rect class="b" width="24.487" height="93.416" transform="translate(599.374 782.158)"/><rect class="b" width="24.487" height="105.013" transform="translate(630.39 770.561)"/><rect class="b" width="24.487" height="83.107" transform="translate(706.325 792.466)"/><rect class="b" width="24.487" height="79.241" transform="translate(737.34 796.332)"/><rect class="b" width="24.487" height="83.107" transform="translate(813.275 792.466)"/><rect class="b" width="24.487" height="126.918" transform="translate(844.291 748.655)"/><rect class="b" width="24.487" height="52.182" transform="translate(916.36 823.392)"/><rect class="b" width="24.487" height="99.858" transform="translate(947.375 775.715)"/><rect class="b" width="24.487" height="83.107" transform="translate(1023.311 792.466)"/><rect class="b" width="24.487" height="52.182" transform="translate(1054.326 823.392)"/><rect class="b" width="24.487" height="67.644" transform="translate(1130.261 807.929)"/><rect class="b" width="24.487" height="105.013" transform="translate(1161.276 770.561)"/><rect class="b" width="24.487" height="83.107" transform="translate(1237.212 792.466)"/><rect class="b" width="24.487" height="134.649" transform="translate(1268.227 740.924)"/><rect class="b" width="24.487" height="83.107" transform="translate(1339.008 792.466)"/><rect class="b" width="24.487" height="123.052" transform="translate(1370.023 752.521)"/><rect class="b" width="24.487" height="68.933" transform="translate(1447.247 806.641)"/><rect class="b" width="24.487" height="143.669" transform="translate(1478.262 731.904)"/><rect class="b" width="24.487" height="34.142" transform="translate(1555.485 841.432)"/><rect class="b" width="24.487" height="123.052" transform="translate(1586.501 752.521)"/><rect class="b" width="24.487" height="71.51" transform="translate(1663.725 804.063)"/><rect class="b" width="24.487" height="123.052" transform="translate(1694.74 752.521)"/><rect class="b" width="158.493" height="32.214" transform="translate(1569.755 635.324)"/><line class="e" x1="1231.863" transform="translate(470.614 876.223)"/><rect class="b" width="94" height="19" rx="9.5" transform="translate(481.196 641)"/><rect class="b" width="29" height="13" rx="6.5" transform="translate(428.196 699)"/><rect class="b" width="29" height="13" rx="6.5" transform="translate(428.196 734)"/><rect class="b" width="29" height="13" rx="6.5" transform="translate(428.196 768)"/><rect class="b" width="29" height="13" rx="6.5" transform="translate(428.196 802)"/><rect class="b" width="29" height="13" rx="6.5" transform="translate(428.196 836)"/><rect class="b" width="29" height="13" rx="6.5" transform="translate(428.196 870)"/><rect class="b" width="43" height="13" rx="6.5" transform="translate(497.196 894)"/><rect class="b" width="43" height="13" rx="6.5" transform="translate(604.196 894)"/><rect class="b" width="43" height="13" rx="6.5" transform="translate(710.196 894)"/><rect class="b" width="43" height="13" rx="6.5" transform="translate(817.196 894)"/><rect class="b" width="43" height="13" rx="6.5" transform="translate(923.196 894)"/><rect class="b" width="43" height="13" rx="6.5" transform="translate(1030.196 894)"/><rect class="b" width="43" height="13" rx="6.5" transform="translate(1136.196 894)"/><rect class="b" width="43" height="13" rx="6.5" transform="translate(1243.196 894)"/><rect class="b" width="43" height="13" rx="6.5" transform="translate(1349.196 894)"/><rect class="b" width="43" height="13" rx="6.5" transform="translate(1456.196 894)"/><rect class="b" width="43" height="13" rx="6.5" transform="translate(1562.196 894)"/><rect class="b" width="43" height="13" rx="6.5" transform="translate(1669.196 894)"/></g></svg>