<?xml version="1.0" encoding="utf-8"?>
<!-- Generator: Adobe Illustrator 22.1.0, SVG Export Plug-In . SVG Version: 6.00 Build 0)  -->
<svg version="1.1" id="Calque_1" xmlns="http://www.w3.org/2000/svg" xmlns:xlink="http://www.w3.org/1999/xlink" x="0px" y="0px"
	 viewBox="0 0 1366 450" style="enable-background:new 0 0 1366 450;" xml:space="preserve">
<style type="text/css">
	.st0{fill:#EEEEEE;}
	.st1{fill:#464646;}
	.st2{fill:#FF5722;}
</style>
<circle class="st0" cx="237" cy="233.3" r="194.9"/>
<g>
	<path class="st1" d="M586.7,389h-23.5v-19.1h-0.5c-3,6.6-8.1,12-15.4,16.1c-7.3,4.1-15.7,6.1-25.3,6.1c-6.1,0-11.8-0.9-17.2-2.7
		c-5.4-1.8-10.1-4.7-14.2-8.5c-4.1-3.8-7.4-8.7-9.8-14.7c-2.4-6-3.7-13.1-3.7-21.3v-79.6h23.5v73.1c0,5.7,0.8,10.7,2.3,14.7
		c1.6,4.1,3.7,7.4,6.3,9.9c2.6,2.5,5.6,4.4,9,5.5c3.4,1.1,6.9,1.7,10.6,1.7c4.9,0,9.4-0.8,13.6-2.3c4.2-1.6,7.8-4,11-7.4
		c3.1-3.4,5.6-7.7,7.3-12.9c1.7-5.2,2.6-11.4,2.6-18.5v-63.7h23.5V389z"/>
	<path class="st1" d="M710.7,298.1c-4.4-4.5-8.9-8-13.7-10.3c-4.8-2.3-10.5-3.5-17.1-3.5c-6.4,0-12.1,1.2-16.8,3.5
		c-4.8,2.3-8.8,5.6-12,9.7c-3.2,4.1-5.7,8.8-7.3,14.1c-1.7,5.3-2.5,10.8-2.5,16.6c0,5.7,1,11.2,2.9,16.3c1.9,5.1,4.6,9.6,8.1,13.4
		c3.5,3.8,7.7,6.8,12.5,9c4.9,2.2,10.4,3.3,16.4,3.3c6.6,0,12.3-1.2,17-3.5c4.7-2.3,9-5.8,13-10.3l16.7,16.7
		c-6.1,6.8-13.2,11.7-21.3,14.6c-8.1,3-16.7,4.4-25.7,4.4c-9.6,0-18.3-1.6-26.2-4.7c-7.9-3.1-14.7-7.5-20.5-13.2
		c-5.7-5.7-10.2-12.4-13.3-20.4c-3.1-7.9-4.7-16.7-4.7-26.2c0-9.6,1.6-18.4,4.7-26.4c3.1-8,7.5-14.9,13.2-20.6
		c5.7-5.7,12.4-10.2,20.4-13.4c7.9-3.2,16.7-4.8,26.5-4.8c9,0,17.7,1.6,26,4.8c8.3,3.2,15.4,8.1,21.5,14.7L710.7,298.1z"/>
	<path class="st1" d="M836.5,298.1c-4.4-4.5-8.9-8-13.7-10.3c-4.8-2.3-10.5-3.5-17.1-3.5c-6.4,0-12.1,1.2-16.8,3.5
		c-4.8,2.3-8.8,5.6-12,9.7c-3.2,4.1-5.7,8.8-7.3,14.1c-1.7,5.3-2.5,10.8-2.5,16.6c0,5.7,1,11.2,2.9,16.3c1.9,5.1,4.6,9.6,8.1,13.4
		c3.5,3.8,7.7,6.8,12.5,9c4.9,2.2,10.3,3.3,16.4,3.3c6.6,0,12.3-1.2,17-3.5c4.7-2.3,9-5.8,13-10.3l16.7,16.7
		c-6.1,6.8-13.2,11.7-21.3,14.6c-8.1,3-16.7,4.4-25.7,4.4c-9.6,0-18.3-1.6-26.2-4.7c-7.9-3.1-14.7-7.5-20.5-13.2
		c-5.7-5.7-10.2-12.4-13.3-20.4c-3.1-7.9-4.7-16.7-4.7-26.2c0-9.6,1.6-18.4,4.7-26.4c3.1-8,7.5-14.9,13.2-20.6
		c5.7-5.7,12.4-10.2,20.4-13.4c7.9-3.2,16.7-4.8,26.5-4.8c9,0,17.7,1.6,26,4.8c8.3,3.2,15.4,8.1,21.5,14.7L836.5,298.1z"/>
	<path class="st1" d="M891.5,335.7c0,5.4,1.2,10.3,3.5,14.7c2.3,4.4,5.4,8.2,9.3,11.4c3.8,3.1,8.3,5.6,13.3,7.3
		c5,1.7,10.3,2.6,15.7,2.6c7.3,0,13.7-1.7,19.1-5.1c5.4-3.4,10.3-7.9,14.9-13.4l17.7,13.6c-13,16.9-31.3,25.3-54.8,25.3
		c-9.7,0-18.6-1.7-26.5-5c-7.9-3.3-14.6-7.9-20.1-13.7c-5.5-5.8-9.7-12.7-12.7-20.6c-3-7.9-4.4-16.5-4.4-25.7
		c0-9.2,1.6-17.8,4.8-25.7c3.2-7.9,7.7-14.8,13.3-20.6c5.7-5.8,12.4-10.4,20.2-13.7c7.8-3.3,16.4-5,25.6-5c11,0,20.2,1.9,27.8,5.7
		c7.6,3.8,13.8,8.8,18.7,15c4.9,6.2,8.4,13.1,10.6,20.9c2.2,7.7,3.3,15.6,3.3,23.6v8.4H891.5z M965.7,316.9c-0.2-5.2-1-10-2.5-14.4
		c-1.5-4.3-3.7-8.1-6.7-11.4c-3-3.2-6.7-5.7-11.1-7.6c-4.4-1.8-9.6-2.7-15.5-2.7c-5.7,0-11,1.1-15.8,3.3c-4.8,2.2-8.8,5-12.1,8.5
		c-3.3,3.5-5.9,7.4-7.7,11.6c-1.8,4.3-2.7,8.5-2.7,12.7H965.7z"/>
	<path class="st1" d="M1020.7,191.7h23.5V389h-23.5V191.7z"/>
	<path class="st1" d="M1083.4,191.7h23.5V389h-23.5V191.7z"/>
	<path class="st1" d="M1138.2,327.1c0-9,1.7-17.5,5.1-25.3c3.4-7.8,8-14.7,14-20.6c5.9-5.9,12.9-10.6,20.9-14
		c8-3.4,16.6-5.1,25.8-5.1c9.2,0,17.8,1.7,25.8,5.1c8,3.4,15,8,20.9,14c5.9,5.9,10.6,12.8,14,20.6c3.4,7.8,5.1,16.3,5.1,25.3
		c0,9-1.7,17.5-5.1,25.4c-3.4,7.9-8.1,14.8-14,20.6c-5.9,5.8-12.9,10.4-20.9,13.8c-8,3.4-16.6,5.1-25.8,5.1
		c-9.2,0-17.8-1.7-25.8-5.1c-8-3.4-15-8-20.9-13.8c-5.9-5.8-10.6-12.7-14-20.6C1139.9,344.6,1138.2,336.2,1138.2,327.1z
		 M1163.2,327.1c0,6.3,1,12,2.9,17.4c1.9,5.3,4.6,9.8,8.1,13.6c3.5,3.7,7.7,6.7,12.8,8.9c5,2.2,10.7,3.3,17,3.3s11.9-1.1,17-3.3
		c5-2.2,9.3-5.1,12.8-8.9c3.5-3.7,6.2-8.3,8.1-13.6c1.9-5.3,2.9-11.1,2.9-17.4c0-6.3-1-12-2.9-17.4c-1.9-5.3-4.6-9.8-8.1-13.6
		c-3.5-3.7-7.7-6.7-12.8-8.9c-5-2.2-10.7-3.3-17-3.3s-11.9,1.1-17,3.3c-5,2.2-9.3,5.1-12.8,8.9c-3.5,3.7-6.2,8.3-8.1,13.6
		C1164.2,315.1,1163.2,320.8,1163.2,327.1z"/>
	<path class="st2" d="M1317.7,390.5c-4.7,0-8.7-1.7-12.1-5.1s-5.1-7.4-5.1-12.1c0-4.7,1.7-8.7,5.1-12.1c3.4-3.4,7.4-5.1,12.1-5.1
		c4.7,0,8.7,1.7,12.1,5.1c3.4,3.4,5.1,7.4,5.1,12.1c0,4.7-1.7,8.7-5.1,12.1S1322.4,390.5,1317.7,390.5z"/>
</g>
<g>
	<path class="st2" d="M130.5,437.2c-38.1,0-65-6.7-67.3-7.2L29,421.2l196.7-190.8L83.7,92.2c-0.2,8.9-0.1,19.2,0.7,30.4
		c2.6,37.3,13.4,93.8,49.7,150.7c5.9,9.2,3.2,21.5-6,27.4c-9.2,5.9-21.5,3.2-27.4-6c-41.2-64.5-53.1-128.5-55.9-170.9
		c-3-46.2,3.8-77.3,4.1-78.6l7.8-34.6l225.9,219.9L111,396.9c6.7,0.4,14,0.7,21.9,0.6c31.4-0.3,77.7-6,120.2-31.8
		c52.4-31.8,88.2-87,106.4-163.9l1.6-6.7l53.1-42.1c-3.8-3.9-8.3-8.5-13.3-13.7c-18.7-19.2-43.1-19.5-59.6-13.3
		c-21.3,7.9-34.8,26.1-36.1,48.7c-0.7,10.9-10.1,19.2-21,18.6c-10.9-0.7-19.2-10-18.6-21c2.3-38.1,26-70.1,61.8-83.5
		c36-13.4,75-4.7,101.8,22.8c15.3,15.7,25.2,25.7,28.6,29.1l15.7,15.7l-77.1,61.1c-21.3,84.4-62.7,145.6-123.2,182.1
		C223.7,429.8,170.8,437.2,130.5,437.2z"/>
</g>
</svg>
