<svg xmlns="http://www.w3.org/2000/svg" width="21.103" height="25.921" viewBox="0 0 21.103 25.921"><defs><style>.a,.b{fill:none;stroke:#0b2540;stroke-miterlimit:10;stroke-width:1.5px;}.a{stroke-linecap:round;}</style></defs><g transform="translate(-1476.486 -44.28)"><path class="a" d="M1097.515,45.062a3.362,3.362,0,1,1-6.724,0" transform="translate(392.885 21.027)"/><path class="b" d="M1104.19,44.751c-4.624-4.338.012-14.814-7.8-16.164a2.039,2.039,0,0,0,.285-1.03,2.064,2.064,0,0,0-4.128,0,2.039,2.039,0,0,0,.285,1.03c-7.816,1.35-3.18,11.826-7.8,16.164a.648.648,0,0,0,.548,1.089h18.071A.648.648,0,0,0,1104.19,44.751Z" transform="translate(392.431 19.537)"/></g></svg>