<svg xmlns="http://www.w3.org/2000/svg" width="24.518" height="24.537" viewBox="0 0 24.518 24.537"><defs><style>.a{fill:#0074ff;}</style></defs><path class="a" d="M46.1,760.093H44.006a2.325,2.325,0,0,1-2.339-2.282l-.019-.378a.551.551,0,0,0-.378-.472.584.584,0,0,0-.6.057l-.283.264a2.351,2.351,0,0,1-3.262-.056l-1.49-1.49a2.329,2.329,0,0,1-.038-3.244l.246-.264a.522.522,0,0,0,.075-.585.586.586,0,0,0-.472-.415l-.4-.019a2.333,2.333,0,0,1-2.245-2.339v-2.094a2.328,2.328,0,0,1,2.283-2.339l.321-.018a.547.547,0,0,0,.47-.378.561.561,0,0,0-.056-.64l-.227-.246a2.333,2.333,0,0,1,.057-3.262l1.49-1.49a2.333,2.333,0,0,1,3.262-.057l.208.208a.585.585,0,0,0,.623.075.6.6,0,0,0,.415-.49l.019-.321a2.361,2.361,0,0,1,2.339-2.264H46.1a2.328,2.328,0,0,1,2.339,2.283v.3a.57.57,0,0,0,.4.49.6.6,0,0,0,.642-.056l.264-.227a2.348,2.348,0,0,1,3.244.076l1.49,1.49a2.335,2.335,0,0,1,.056,3.262l-.226.245a.6.6,0,0,0-.076.585c.1.227.246.416.472.416l.378.018a2.345,2.345,0,0,1,2.243,2.339v2.094a2.327,2.327,0,0,1-2.281,2.339l-.359.019a.513.513,0,0,0-.453.357.572.572,0,0,0,.038.623l.264.283a2.329,2.329,0,0,1-.056,3.244l-1.49,1.49a2.337,2.337,0,0,1-3.263.056l-.283-.264a.6.6,0,0,0-.585-.075.578.578,0,0,0-.4.47l-.019.434A2.344,2.344,0,0,1,46.1,760.093Zm-5.111-5.073a2.628,2.628,0,0,1,1,.207,2.447,2.447,0,0,1,1.547,2.151l.019.377a.459.459,0,0,0,.453.453H46.1a.443.443,0,0,0,.453-.434l.019-.415a2.515,2.515,0,0,1,4.167-1.7l.283.265a.471.471,0,0,0,.642,0l1.49-1.49a.469.469,0,0,0,.019-.642l-.283-.283a2.515,2.515,0,0,1,1.735-4.148l.357-.019a.459.459,0,0,0,.453-.453v-2.113a.442.442,0,0,0-.434-.451l-.377-.019a2.4,2.4,0,0,1-2.132-1.548,2.43,2.43,0,0,1,.415-2.64l.227-.245a.45.45,0,0,0-.019-.642l-1.471-1.489a.486.486,0,0,0-.64-.019l-.227.245A2.553,2.553,0,0,1,46.57,738.2v-.3a.459.459,0,0,0-.453-.451H44.006a.442.442,0,0,0-.453.434l-.019.338a2.554,2.554,0,0,1-4.225,1.716l-.208-.187a.448.448,0,0,0-.64,0l-1.471,1.489a.468.468,0,0,0-.019.642l.245.264a2.386,2.386,0,0,1,.415,2.585,2.479,2.479,0,0,1-2.169,1.584l-.338.019a.458.458,0,0,0-.453.451v2.094a.443.443,0,0,0,.434.453l.4.019a2.543,2.543,0,0,1,1.716,4.167l-.245.264a.45.45,0,0,0,.019.642l1.49,1.49a.467.467,0,0,0,.64.019l.283-.265A2.207,2.207,0,0,1,40.987,755.02Zm4.074-1.867a5.357,5.357,0,0,1-5.167-6.79,5.354,5.354,0,1,1,6.6,6.6h0A5.345,5.345,0,0,1,45.061,753.153Zm-.019-8.827a3.184,3.184,0,0,0-.942.132,3.422,3.422,0,0,0-2.4,2.377,3.481,3.481,0,0,0,4.3,4.3h0a3.471,3.471,0,0,0-.963-6.81Z" transform="translate(-32.802 -735.556)"/></svg>