<svg xmlns="http://www.w3.org/2000/svg" width="22.291" height="22.291" viewBox="0 0 22.291 22.291"><defs><style>.a{fill:none;}.a,.b{stroke:#007add;stroke-miterlimit:10;stroke-width:1.5px;}.b{fill:#30437a;}</style></defs><g transform="translate(-3201.966 -383.605) rotate(45)"><path class="a" d="M2553.576-1985.859l-2.14,4.412a.326.326,0,0,1-.586,0l-2.14-4.412a2.108,2.108,0,0,1-.211-.919v-17.066a.656.656,0,0,1,.656-.656h3.975a.656.656,0,0,1,.656.656v17.066A2.105,2.105,0,0,1,2553.576-1985.859Z"/><line class="b" x2="5.287" transform="translate(2548.5 -2002.238)"/><line class="b" x2="5.287" transform="translate(2548.527 -1986.676)"/><path class="b" d="M2581-1603.5l.58,1.195a.325.325,0,0,0,.586,0l.58-1.195Z" transform="translate(-30.724 -379.142)"/></g></svg>