<svg xmlns="http://www.w3.org/2000/svg" width="175.2" height="55.243" viewBox="0 0 175.2 55.243"><defs><style>.a{fill:#0b2540;}.b{fill:#007ad6;}</style></defs><g transform="translate(-138.854 -21.585)"><g transform="translate(197.293 44.849)"><path class="a" d="M2332.287-731.161h-3.2v-2.6h-.068a4.768,4.768,0,0,1-2.1,2.191,6.879,6.879,0,0,1-3.443.832,7.328,7.328,0,0,1-2.341-.368,5.266,5.266,0,0,1-1.933-1.157,5.433,5.433,0,0,1-1.334-2,7.791,7.791,0,0,1-.5-2.9V-748h3.2v9.951a5.769,5.769,0,0,0,.313,2,3.713,3.713,0,0,0,.857,1.348,3.184,3.184,0,0,0,1.226.749,4.659,4.659,0,0,0,1.443.232,5.449,5.449,0,0,0,1.852-.314,3.929,3.929,0,0,0,1.5-1.006,4.782,4.782,0,0,0,.995-1.757,8.141,8.141,0,0,0,.353-2.518v-8.671h3.2v16.824Z" transform="translate(-2317.368 758.017)"/><path class="a" d="M2342.82-743.4a6.7,6.7,0,0,0-1.865-1.4,5.339,5.339,0,0,0-2.327-.477,5.2,5.2,0,0,0-2.288.477,4.566,4.566,0,0,0-1.633,1.321,5.844,5.844,0,0,0-.993,1.919,7.328,7.328,0,0,0-.342,2.26,6.348,6.348,0,0,0,.4,2.219,5.5,5.5,0,0,0,1.1,1.823,5.284,5.284,0,0,0,1.7,1.226,5.409,5.409,0,0,0,2.232.45,5.237,5.237,0,0,0,2.314-.477,5.829,5.829,0,0,0,1.769-1.4l2.274,2.273a7.069,7.069,0,0,1-2.9,1.987,9.98,9.98,0,0,1-3.5.6,9.656,9.656,0,0,1-3.566-.641,8.206,8.206,0,0,1-2.79-1.8,7.937,7.937,0,0,1-1.811-2.778,9.735,9.735,0,0,1-.639-3.566,9.881,9.881,0,0,1,.639-3.593,8.013,8.013,0,0,1,1.8-2.8,8.155,8.155,0,0,1,2.777-1.824,9.5,9.5,0,0,1,3.606-.653,9.755,9.755,0,0,1,3.539.653,7.72,7.72,0,0,1,2.927,2Z" transform="translate(-2311.022 757.885)"/><path class="a" d="M2354.2-743.4a6.7,6.7,0,0,0-1.865-1.4,5.339,5.339,0,0,0-2.327-.477,5.208,5.208,0,0,0-2.288.477,4.565,4.565,0,0,0-1.633,1.321,5.844,5.844,0,0,0-.993,1.919,7.335,7.335,0,0,0-.341,2.26,6.359,6.359,0,0,0,.4,2.219,5.5,5.5,0,0,0,1.1,1.823,5.3,5.3,0,0,0,1.7,1.226,5.367,5.367,0,0,0,2.232.45,5.236,5.236,0,0,0,2.314-.477,5.833,5.833,0,0,0,1.769-1.4l2.274,2.273a7.069,7.069,0,0,1-2.9,1.987,9.982,9.982,0,0,1-3.5.6,9.656,9.656,0,0,1-3.566-.641,8.21,8.21,0,0,1-2.79-1.8,7.939,7.939,0,0,1-1.811-2.778,9.74,9.74,0,0,1-.639-3.566,9.886,9.886,0,0,1,.639-3.593,8.016,8.016,0,0,1,1.8-2.8,8.16,8.16,0,0,1,2.777-1.824,9.5,9.5,0,0,1,3.606-.653,9.753,9.753,0,0,1,3.539.653,7.709,7.709,0,0,1,2.927,2Z" transform="translate(-2305.284 757.885)"/><path class="a" d="M2356.013-738.271a4.253,4.253,0,0,0,.477,2,4.947,4.947,0,0,0,1.265,1.551,5.818,5.818,0,0,0,1.811.994,6.634,6.634,0,0,0,2.137.353,4.793,4.793,0,0,0,2.6-.693,8.752,8.752,0,0,0,2.029-1.824l2.409,1.852a8.873,8.873,0,0,1-7.46,3.444,9.294,9.294,0,0,1-3.607-.681,7.947,7.947,0,0,1-2.736-1.865,8.307,8.307,0,0,1-1.729-2.8,9.8,9.8,0,0,1-.6-3.5,9.237,9.237,0,0,1,.654-3.5,8.7,8.7,0,0,1,1.809-2.8,8.428,8.428,0,0,1,2.75-1.865,8.881,8.881,0,0,1,3.485-.681,8.366,8.366,0,0,1,3.784.776,7.432,7.432,0,0,1,2.547,2.043,8.045,8.045,0,0,1,1.442,2.844,11.678,11.678,0,0,1,.449,3.213v1.143Zm10.1-2.558a6.874,6.874,0,0,0-.34-1.96,4.45,4.45,0,0,0-.913-1.552,4.439,4.439,0,0,0-1.51-1.035,5.562,5.562,0,0,0-2.11-.367,5.116,5.116,0,0,0-2.151.448,5.211,5.211,0,0,0-1.647,1.158,5.382,5.382,0,0,0-1.048,1.578,4.441,4.441,0,0,0-.367,1.73Z" transform="translate(-2299.605 757.871)"/><path class="a" d="M2366.565-754.66h3.2V-727.8h-3.2V-754.66Z" transform="translate(-2292.571 754.66)"/><path class="a" d="M2372.239-754.66h3.2V-727.8h-3.2Z" transform="translate(-2289.711 754.66)"/><path class="a" d="M2377.2-739.441a8.554,8.554,0,0,1,.695-3.444,8.836,8.836,0,0,1,1.906-2.8,8.93,8.93,0,0,1,2.844-1.906,8.879,8.879,0,0,1,3.512-.695,8.875,8.875,0,0,1,3.512.695,8.723,8.723,0,0,1,2.845,1.906,9.057,9.057,0,0,1,1.906,2.8,8.541,8.541,0,0,1,.693,3.444,8.658,8.658,0,0,1-.693,3.458,8.751,8.751,0,0,1-1.906,2.8,9.1,9.1,0,0,1-2.845,1.878,8.873,8.873,0,0,1-3.512.693,8.877,8.877,0,0,1-3.512-.693,9.083,9.083,0,0,1-2.844-1.878,8.759,8.759,0,0,1-1.906-2.8A8.619,8.619,0,0,1,2377.2-739.441Zm3.4,0a7.043,7.043,0,0,0,.394,2.369,5.364,5.364,0,0,0,1.1,1.85,5.194,5.194,0,0,0,1.743,1.212,5.7,5.7,0,0,0,2.313.45,5.755,5.755,0,0,0,2.314-.45,5.13,5.13,0,0,0,1.742-1.212,5.227,5.227,0,0,0,1.1-1.85,6.986,6.986,0,0,0,.4-2.369,7.044,7.044,0,0,0-.4-2.369,5.37,5.37,0,0,0-1.1-1.851,5.2,5.2,0,0,0-1.742-1.211,5.71,5.71,0,0,0-2.314-.45,5.75,5.75,0,0,0-2.313.45,5.156,5.156,0,0,0-1.743,1.211,5.263,5.263,0,0,0-1.1,1.851A7.043,7.043,0,0,0,2380.6-739.441Z" transform="translate(-2287.211 757.871)"/><path class="b" d="M2394.228-735.1a2.245,2.245,0,0,1-1.647-.695,2.248,2.248,0,0,1-.693-1.647,2.249,2.249,0,0,1,.693-1.647,2.245,2.245,0,0,1,1.647-.695,2.239,2.239,0,0,1,1.647.695,2.244,2.244,0,0,1,.695,1.647,2.243,2.243,0,0,1-.695,1.647A2.239,2.239,0,0,1,2394.228-735.1Z" transform="translate(-2279.808 762.159)"/></g><g transform="translate(138.854 21.585)"><path class="b" d="M2291.657-714.885a38.942,38.942,0,0,1-8.716-.932l-4.428-1.14,25.471-24.707-18.388-17.9c-.025,1.152-.012,2.486.092,3.936a41.849,41.849,0,0,0,6.436,19.515,2.574,2.574,0,0,1-.778,3.549,2.572,2.572,0,0,1-3.548-.778,46.963,46.963,0,0,1-7.239-22.13,39.056,39.056,0,0,1,.531-10.179l1.011-4.48,29.252,28.476-22.22,21.548c.868.053,1.813.092,2.835.078a30.805,30.805,0,0,0,15.565-4.118c6.787-4.118,11.422-11.267,13.779-21.225l.207-.866,6.876-5.452c-.492-.505-1.075-1.1-1.722-1.775a7.163,7.163,0,0,0-7.719-1.722,7,7,0,0,0-4.674,6.306,2.583,2.583,0,0,1-2.719,2.409,2.576,2.576,0,0,1-2.408-2.721,12.2,12.2,0,0,1,8-10.812,12.226,12.226,0,0,1,13.183,2.952c1.981,2.033,3.262,3.328,3.7,3.769l2.033,2.032-9.985,7.913c-2.757,10.93-8.119,18.855-15.953,23.582A35.411,35.411,0,0,1,2291.657-714.885Z" transform="translate(-2278.513 770.128)"/></g></g></svg>